<?xml version="1.0" encoding="iso-8859-1"?>
<!-- Uploaded to: SVG Repo, www.svgrepo.com, Generator: SVG Repo Mixer Tools -->
<!DOCTYPE svg PUBLIC "-//W3C//DTD SVG 1.1//EN" "http://www.w3.org/Graphics/SVG/1.1/DTD/svg11.dtd">
<svg fill="#000000" version="1.1" id="Capa_1" xmlns="http://www.w3.org/2000/svg" xmlns:xlink="http://www.w3.org/1999/xlink" 
	 width="800px" height="800px" viewBox="0 0 585.379 585.379"
	 xml:space="preserve">
<g>
	<path d="M533.634,278.583c-0.489-14.872,4.345-26.806,15.178-37.699c2.938-2.938,6.304-5.753,10.098-8.507l23.501-16.892
		c-3.488-2.815-6.977-5.569-10.404-8.262c-21.48-16.891-41.738-32.803-46.145-64.811c-2.57-18.728,5.569-42.473,24.297-70.441
		c10.22-15.239,20.93-27.663,25.948-33.231c-34.884,0.612-70.196,15.361-102.143,42.84c-21.665,18.666-41.678,43.207-56.671,69.339
		c-2.203-7.344-4.774-14.565-7.772-21.665c-10.649-25.214-25.888-47.797-45.35-67.259c-19.4-19.4-42.044-34.701-67.259-45.349
		C270.841,5.63,243.117,0,214.537,0c-28.581,0-56.243,5.569-82.375,16.646c-25.214,10.648-47.797,25.887-67.259,45.349
		c-19.4,19.522-34.639,42.167-45.288,67.381C8.599,155.448,2.969,183.171,2.969,211.752s5.569,56.243,16.646,82.375
		c10.649,25.215,25.888,47.797,45.35,67.26c19.4,19.4,42.044,34.699,67.259,45.348c8.078,3.428,16.34,6.305,24.725,8.691
		c-0.123,0.061-0.245,0.123-0.428,0.184c-29.56,15.545-57.712,37.699-78.397,62.057c-27.111,31.764-41.616,66.77-42.228,101.408
		c5.141-4.65,16.34-14.32,30.172-23.867c25.826-17.811,48.226-26.867,66.585-26.867c2.387,0,4.712,0.184,6.916,0.49
		c32.008,4.406,47.919,24.662,64.811,46.145c2.692,3.426,5.447,6.914,8.262,10.404l16.891-23.502
		c2.693-3.795,5.569-7.16,8.507-10.098c10.894-10.895,22.828-15.668,37.699-15.178c19.583,0.674,34.946,9.24,48.47,27.111
		l15.484,20.502l18.176-18.176c22.889-22.889,54.346-34.822,93.575-35.436c30.538-0.488,54.529,6.426,55.508,6.672l39.78,12.301
		l-12.301-39.779c-0.307-1.041-7.161-25.031-6.671-55.51c0.611-39.168,12.546-70.625,35.435-93.574l18.177-18.176l-20.502-15.484
		C542.875,313.527,534.246,298.166,533.634,278.583z M21.94,211.691c0-106.366,86.231-192.597,192.597-192.597
		c94.554,0,173.196,68.177,189.475,158.019c-0.244,0.612-0.551,1.163-0.795,1.775c-8.323,18.115-16.708,38.188-19.951,60.465
		c-2.143,14.75-1.53,31.396,1.836,49.327l1.102,5.814l-62.975-62.914v69.279l-25.337,25.336h-69.279l61.996,61.996
		c-0.428,0.184-0.795,0.367-1.224,0.551l-3.672-0.674c-10.894-2.02-21.42-3.059-31.273-3.059c-6.243,0-12.362,0.428-18.054,1.223
		c-18.604,2.693-35.68,8.998-51.347,15.852C92.688,387.885,21.94,308.08,21.94,211.691z M548.566,346.209
		c-14.32,14.32-25.092,31.701-32.068,51.592c-5.631,16.156-8.752,34.088-9.364,53.242c-0.979,33.172,5.937,59.242,7.345,64.199
		l0.918,3.184l-3.183-0.918c-4.346-1.225-27.602-7.467-57.834-7.467c-20.196,0-39.046,2.754-56.12,8.262
		c-21.359,6.854-39.902,18.055-55.08,33.232l-1.469,1.469l-1.285-1.715c-17.32-22.889-38.312-34.455-64.199-35.312
		c-20.379-0.672-38.127,6.426-52.877,21.176c-3.733,3.732-7.283,7.955-10.648,12.668l-1.408,1.898l-1.53-1.836
		c-1.958-2.326-3.855-4.713-5.691-7.039c-4.162-5.201-8.079-10.158-12.546-14.627c-14.076-14.076-31.334-21.236-51.225-21.236
		c-32.742,0-63.097,19.523-69.401,24.725l-6.12,5.02l3.305-7.223c0.184-0.367,4.406-9.67,8.262-15.605
		c7.528-11.629,16.892-23.012,28.581-34.701c3.917-3.916,8.079-7.895,12.729-12.057c16.953-15.299,36.353-28.15,57.712-38.188
		c4.896-2.266,9.914-4.652,15.116-6.977c15.178-6.732,31.579-13.037,48.776-15.484c4.835-0.674,9.976-1.041,15.3-1.041
		c12.056,0,23.868,1.836,33.782,4.039c11.873,2.693,21.114,5.938,24.786,7.346c3.305-8.508,6.487-17.811,7.834-23.012
		c0.429-1.715,0.673-3,0.612-3.672c-2.754-2.754-7.038-7.039-11.812-11.812c-12.607-12.607-28.581-28.58-28.581-28.58l-3.121-3.121
		h28.213l37.332-37.332v-28.213l3.121,3.122c0,0,16.953,16.891,29.683,29.682c4.284,4.283,8.078,8.078,10.648,10.648
		c0,0,0,0,0.062,0c1.102,0,3.183-0.488,5.813-1.223c5.814-1.652,14.383-4.713,20.809-7.223c-1.225-3.244-3.917-10.648-6.365-20.379
		c-3.61-14.505-6.731-34.333-3.978-53.489c2.999-20.686,11.444-40.208,19.645-57.773c0.979-2.081,1.897-4.1,2.877-6.12
		c10.037-21.359,22.827-40.759,38.188-57.712c4.162-4.651,8.14-8.812,12.057-12.729c11.689-11.689,23.072-21.053,34.7-28.581
		c5.937-3.855,15.239-8.078,15.606-8.262l7.222-3.305l-5.019,6.12c-3.917,4.774-16.341,23.562-21.971,47.002
		c-3.121,13.158-3.611,25.643-1.408,37.026c2.693,13.831,9.364,26.132,19.829,36.598c4.468,4.467,9.425,8.384,14.627,12.546
		c2.325,1.836,4.712,3.733,7.038,5.691l1.836,1.53l-1.897,1.407c-4.712,3.366-8.936,6.977-12.668,10.649
		c-14.75,14.75-21.849,32.559-21.176,52.877c0.857,25.888,12.424,46.88,35.312,64.198l1.714,1.285L548.566,346.209z
		 M272.004,139.842c-21.726-21.726-21.298-57.405,0.918-79.621l12.974,12.975c-15.055,15.055-15.422,39.106-0.918,53.672
		c14.566,14.565,38.618,14.137,53.672-0.918l12.975,12.974c-11.261,11.261-26.01,16.891-40.637,16.891
		C296.79,155.876,282.652,150.552,272.004,139.842z M161.477,203.062c-12.913,28.886-41.065,46.145-70.135,46.145
		c-10.037,0-20.196-2.081-29.866-6.365l7.528-16.769c7.222,3.244,14.872,4.773,22.338,4.773c22.032,0,43.452-13.219,53.366-35.251
		c13.281-29.56,0.857-64.015-27.601-76.806l7.528-16.769C162.333,118.912,178.918,164.2,161.477,203.062z M135.222,252.633
		l14.137,31.09l-17.258,7.833l-14.137-31.089L135.222,252.633z M200.951,241.679l-33.783-17.442l8.69-16.83l33.783,17.442
		L200.951,241.679z"/>
</g>
</svg>